# xmcd
#
# Track frame offsets: 
#        150
#        13852
#        25022
#        34475
#        42807
#        54397
#        69802
#        83454
#        90240
#        100990
#        111375
#        124345
#        136700
#        150587
#        168357
#
# Disc length: 2388 seconds
#
# Revision: 2
# Processed by: cddbd v1.5.2PL0 Copyright (c) Steve Scherf et al.
# Submitted via: ExactAudioCopy v0.99pb5
#
DISCID=b009520f
DTITLE=Ebbser Kaiserklang - 50 Jahre
DYEAR=1997
DGENRE=Volksmusik
TTITLE0=Ebbser Bauernpolka
TTITLE1=Walzerklang am Jägernsee
TTITLE2=Zwei Freunde
TTITLE3=Sepppi Seiner
TTITLE4=Almrauschawlzer
TTITLE5=Sepp und Schani
TTITLE6=Die Weltroas
TTITLE7=Kasisertal Ländler
TTITLE8=Berg Heil
TTITLE9=Hans Schick Walzer
TTITLE10=Mei Bua
TTITLE11=Dorfschwalben Walzer
TTITLE12=Triller-Ländler
TTITLE13=He Brugda, was i heaer von dir
TTITLE14=Stoanrigler-Marsch
EXTD=
EXTT0=
EXTT1=
EXTT2=
EXTT3=
EXTT4=
EXTT5=
EXTT6=
EXTT7=
EXTT8=
EXTT9=
EXTT10=
EXTT11=
EXTT12=
EXTT13=
EXTT14=
PLAYORDER=
